<?xml version="1.0" encoding="utf-8"?>
<!-- Generator: Adobe Illustrator 27.5.0, SVG Export Plug-In . SVG Version: 6.00 Build 0)  -->
<svg version="1.1" id="Layer_1" xmlns="http://www.w3.org/2000/svg" xmlns:xlink="http://www.w3.org/1999/xlink" x="0px" y="0px"
	 viewBox="0 0 1000 1000" style="enable-background:new 0 0 1000 1000;" xml:space="preserve">
<g>
	<path style="fill-rule:evenodd;clip-rule:evenodd;fill:#E49476;" d="M857.125,453.143c-1.151-32.415-19.224-62.577-48.898-75.669
		c-35.628-15.726-79.37,4.493-115.165,11.699c-43.606,8.787-87.664,15.374-131.936,19.733
		c-88.722,8.733-178.253,8.418-266.954-0.305c-37.481-3.687-76.105-8.93-115.736-15.702c-4.078-0.697-74.316-7.758-102.994,5.881
		c-29.831,14.18-44.741,49.007-41.425,80.735c9.005,86.279,112.943,148.977,180.155,188.069
		c78.017,45.383,163.313,68.878,253.383,69.713c76.579,0.697,154.814-30.518,219.53-69.368
		C764.703,621.324,860.772,555.119,857.125,453.143z"/>
	<path style="fill-rule:evenodd;clip-rule:evenodd;fill:#51100C;" d="M463.8,690.115c-2.906-0.021-5.811-0.119-8.723-0.105
		c0.326-18.024,1.449-36.052,1.552-54.067c0.474-0.598,0.935-1.215,1.458-1.724c1.834-1.81,3.841-3.238,6.074-3.959
		c24.158-7.799,50.123-5.797,77.597,4.345c1.66,0.617,3.435,2.139,5.164,4.081c4.008,4.517,6.672,10.018,8.076,15.866
		c0.366-1.231,0.79-2.402,1.245-3.544c-0.049,8.447,0.237,16.858,0.687,25.265l0.593-0.148c-0.785-11.174-1.348-22.348-1.28-33.578
		c1.513-3.775,3.469-7.018,5.877-9.38c1.482-1.463,3.109-2.559,4.838-3.351l1.234-0.617c24.158-7.793,50.12-5.787,77.592,4.353
		c1.67,0.614,3.45,2.141,5.166,4.078c0.424,0.479,0.75,1.027,1.145,1.527c32.762-16.849,65.429-37.793,97.978-63.032
		c51.101-32.298,113.872-147.711,32.702-160.649c9.385,3.726,18.251,8.93,26.06,15.845c1.043,0.928,1.996,1.892,2.974,2.845
		c0.148,7.157,0.099,13.957-0.286,20.125c-0.582,9.336-6.034,17.797-14.476,21.499c-14.975,6.562-35.178,6.934-60.323,1.447
		l-0.544-0.113c-5.145-1.137-9.662-3.865-13.081-7.596l-0.005,0.124c-0.035,0.657-0.035,1.369-0.07,2.001
		c-0.692,11.021-7.131,21.019-17.1,25.389c-17.817,7.813-41.884,8.219-71.892,1.581c-2.092-0.46-4.073-1.158-5.966-2.031
		c-5.337-2.476-9.781-6.508-12.849-11.486l-0.197-0.272c-1.454,13.828-9.697,26.213-22.31,31.738
		c-23.476,10.285-55.193,10.824-94.735,2.082c-7.898-1.745-14.847-5.916-20.149-11.624c-5.713-6.139-9.514-14.08-10.36-22.883
		c-0.133-1.384-0.241-2.842-0.359-4.299l-0.094-1.177c-0.188,2.467-0.391,4.908-0.614,7.241
		c-1.625,16.981-14.105,30.884-30.502,34.507c-39.547,8.737-71.261,8.208-94.737-2.082c-13.141-5.767-21.621-18.932-22.526-33.454
		c-0.04-0.523-0.03-1.116-0.059-1.635l-0.148,0.202c-3.232,5.53-8.179,9.894-14.129,12.415c-1.611,0.687-3.262,1.309-5.016,1.7
		c-30.019,6.627-54.088,6.233-71.905-1.576c-9.967-4.374-16.403-14.371-17.095-25.389c-0.038-0.682-0.033-1.447-0.073-2.134
		l-0.016,0.014c-3.4,3.707-7.872,6.406-12.963,7.556l-0.103,0.035c-25.408,5.611-45.789,5.269-60.868-1.339
		c-8.442-3.701-13.892-12.173-14.476-21.494c-0.488-7.818-0.513-18.38-0.183-29.44c-66.901,8.486-57.259,53.964-11.029,117.109
		c11.034,15.083,24.517,28.25,39.572,39.141c32.202,23.298,64.301,42.917,96.317,58.862c0.978-1.562,2.05-3.06,3.276-4.453
		c1.73-1.937,3.499-3.464,5.175-4.078c27.463-10.14,53.439-12.152,77.587-4.353c0.539,0.178,1.029,0.509,1.543,0.771
		c1.616,0.786,3.138,1.829,4.537,3.198c3.133,3.074,5.515,7.612,7.126,12.93l0.089-0.326c0.18,2.401,0.242,4.803,0.382,7.201
		c1.487-5.25,3.958-10.182,7.6-14.283c1.721-1.942,3.499-3.464,5.169-4.083c27.474-10.137,53.431-12.143,77.588-4.34
		c2.233,0.717,4.24,2.146,6.078,3.954c1.36,1.344,2.532,3.03,3.618,4.868l-0.005,0.129c1.934,3.341,3.456,7.305,4.404,11.753
		c1.349-4.749,3.332-8.867,5.872-11.99c-0.099,18.024-1.226,36.057-1.553,54.067L463.8,690.115z"/>
	<path style="fill-rule:evenodd;clip-rule:evenodd;fill:#280E0E;" d="M323.365,647.359c-35.855-7.091-71.592-23.87-90.126-53.251
		c-18.528-29.371-13.62-72.605,17.189-91.069c19.304-11.565,43.798-11.643,66.768-11.327c93.571,1.274,187.14,2.551,280.709,3.825
		c37.793,0.509,83.914,5.964,98.369,38.395c8.243,18.474,2.209,40.433-10.552,56.539c-12.766,16.112-31.337,27.35-50.148,37.086
		c-35.386,18.32-75.817,32.948-115.69,26.267L323.365,647.359z"/>
	<path style="fill-rule:evenodd;clip-rule:evenodd;fill:#FCE0E1;" d="M215.813,437.101c-1.156,10.538-2.96,21-5.619,31.377
		l0.016-0.014c0.04,0.687,0.035,1.452,0.073,2.134c0.692,11.017,7.127,21.014,17.095,25.389c17.817,7.809,41.885,8.203,71.905,1.576
		c1.754-0.391,3.405-1.013,5.016-1.7c4.369-15.651,8.203-31.342,10.789-47.227C282.933,445.923,249.805,442.079,215.813,437.101z"/>
	<path style="fill-rule:evenodd;clip-rule:evenodd;fill:#FCE0E1;" d="M121.784,453.237c0.584,9.321,6.034,17.792,14.476,21.494
		c15.079,6.608,35.461,6.949,60.868,1.339l0.103-0.035c4.073-13.348,6.672-26.82,8.14-40.416h-0.024
		c-26.822-4.097-52.393-14.985-79.382-12.34c-1.506,0.148-2.926,0.335-4.364,0.518C121.271,434.857,121.295,445.419,121.784,453.237
		z"/>
	<path style="fill-rule:evenodd;clip-rule:evenodd;fill:#FCE0E1;" d="M719.812,420.505c4.592,19.26,10.182,38.168,16.914,56.731
		c25.144,5.487,45.348,5.115,60.323-1.447c8.442-3.701,13.894-12.163,14.476-21.499c0.385-6.168,2.678-15.651,2.53-22.813
		c1.587,0.277,1.548-3.949-6.277-8.327c-9.695-5.417-14.86-6.222-25.001-7.675C767.352,413.013,746.709,414.284,719.812,420.505z"/>
	<path style="fill-rule:evenodd;clip-rule:evenodd;fill:#EDC7C6;" d="M714.955,421.577c-1.724,0.431-3.415,0.98-5.115,1.557
		c3.755,15.731,8.086,31.261,13.256,46.516l0.005-0.124c3.419,3.731,7.936,6.46,13.081,7.596l0.544,0.113
		c-6.732-18.563-12.321-37.471-16.914-56.731C718.168,420.887,716.65,421.159,714.955,421.577z"/>
	<path style="fill-rule:evenodd;clip-rule:evenodd;fill:#EDC7C6;" d="M315.086,448.636c-2.586,15.885-6.419,31.576-10.789,47.227
		c5.951-2.521,10.897-6.885,14.129-12.415c2.891-11.282,5.318-22.609,7.131-34.026C322.06,449.156,318.6,448.932,315.086,448.636z"
		/>
	<path style="fill-rule:evenodd;clip-rule:evenodd;fill:#EDC7C6;" d="M205.371,435.619c-1.468,13.596-4.068,27.068-8.14,40.416
		c5.091-1.151,9.563-3.85,12.963-7.556c2.659-10.377,4.463-20.84,5.619-31.377C212.319,436.592,208.884,436.163,205.371,435.619z"/>
	<path style="fill-rule:evenodd;clip-rule:evenodd;fill:#FCE0E1;" d="M698.078,426.916c-25.071,5.595-51.379,10.438-78.847,14.436
		c2.04,18.568,4.911,36.983,8.836,55.239c1.893,0.873,3.874,1.571,5.966,2.031c30.009,6.637,54.076,6.231,71.892-1.581
		c9.969-4.369,16.408-14.368,17.1-25.389c0.035-0.633,0.035-1.344,0.07-2.001c-5.169-15.255-9.5-30.785-13.256-46.516
		C705.941,424.478,702.081,426.027,698.078,426.916z"/>
	<path style="fill-rule:evenodd;clip-rule:evenodd;fill:#FCE0E1;" d="M325.558,449.422c-1.813,11.416-4.24,22.744-7.131,34.026
		l0.148-0.202c0.03,0.52,0.019,1.112,0.059,1.635c0.905,14.521,9.385,27.686,22.526,33.454c23.476,10.29,55.19,10.818,94.737,2.082
		c16.397-3.623,28.877-17.525,30.502-34.507c0.223-2.333,0.425-4.774,0.614-7.241l0.094,1.177
		c-0.199-8.744-0.579-17.485-0.959-26.218C421.545,454.517,374.659,453.228,325.558,449.422z"/>
	<path style="fill-rule:evenodd;clip-rule:evenodd;fill:#FCE0E1;" d="M476.517,453.444c0.785,17.841,1.304,35.703,1.309,53.584
		c5.302,5.708,12.251,9.879,20.149,11.624c39.542,8.742,71.259,8.203,94.735-2.082c12.612-5.525,20.855-17.911,22.31-31.738
		l0.197,0.272c-2.648-14.031-4.591-28.18-6.158-42.394C567.472,448.385,523.314,452.14,476.517,453.444z"/>
	<path style="fill-rule:evenodd;clip-rule:evenodd;fill:#EDC7C6;" d="M609.06,442.71c1.567,14.215,3.51,28.363,6.158,42.394
		c3.069,4.978,7.513,9.01,12.849,11.486c-3.925-18.256-6.796-36.671-8.836-55.239C615.88,441.842,612.445,442.257,609.06,442.71z"/>
	<path style="fill-rule:evenodd;clip-rule:evenodd;fill:#EDC7C6;" d="M466.148,453.628c0.38,8.733,0.76,17.475,0.959,26.218
		c0.119,1.458,0.227,2.915,0.359,4.299c0.846,8.803,4.646,16.744,10.36,22.883c-0.005-17.881-0.525-35.743-1.309-53.584
		C473.096,453.539,469.592,453.554,466.148,453.628z"/>
	<path style="fill-rule:evenodd;clip-rule:evenodd;fill:#F7A19D;" d="M285.393,632.533
		C379.665,520.811,536.465,370.446,628.7,368.105c119.625,12.236,69.704,131.357,23.396,271.052
		c-59.632,28.309-118.196,39.561-187.07,9.598C389.925,672.209,338.161,646.782,285.393,632.533z"/>
	<path style="fill-rule:evenodd;clip-rule:evenodd;fill:#FCE0E1;" d="M444.639,689.991h-0.138
		c0.331-18.059,1.498-36.148,1.592-54.215l0.127,0.267l0.005-0.129c-1.086-1.838-2.258-3.524-3.618-4.868
		c-1.838-1.808-3.844-3.238-6.078-3.954c-24.158-7.804-50.115-5.797-77.588,4.34c-1.67,0.619-3.449,2.141-5.169,4.083
		c-3.642,4.101-6.113,9.033-7.6,14.283c0.544,9.024,0.865,18.059,0.983,27.087c31.768,8.159,63.436,12.598,95.007,13.325
		c0.825-0.016,1.646-0.07,2.471-0.094L444.639,689.991z"/>
	<path style="fill-rule:evenodd;clip-rule:evenodd;fill:#FCE0E1;" d="M645.784,633.551c-27.472-10.14-53.434-12.147-77.592-4.353
		l-1.234,0.617c-0.495,14.555-0.267,29.06,0.598,43.542c28.258-8.318,56.438-19.745,84.539-34.2c-0.396-0.5-0.722-1.048-1.145-1.527
		C649.234,635.692,647.454,634.165,645.784,633.551z"/>
	<path style="fill-rule:evenodd;clip-rule:evenodd;fill:#FCE0E1;" d="M554.998,654.551c-1.404-5.848-4.068-11.348-8.076-15.866
		c-1.729-1.942-3.504-3.464-5.164-4.081c-27.474-10.142-53.439-12.143-77.597-4.345c-2.233,0.722-4.24,2.15-6.074,3.959
		c-0.523,0.509-0.983,1.126-1.458,1.724c-0.103,18.015-1.226,36.043-1.552,54.067c2.912-0.014,5.816,0.084,8.723,0.105
		c31.14-0.964,62.776-5.724,93.722-13.991c-0.453-8.412-1.328-16.669-1.28-25.117C555.788,652.149,555.364,653.32,554.998,654.551z"
		/>
	<path style="fill-rule:evenodd;clip-rule:evenodd;fill:#FCE0E1;" d="M334.04,626.795c-0.514-0.261-1.004-0.593-1.543-0.771
		c-24.147-7.799-50.123-5.787-77.587,4.353c-1.675,0.614-3.445,2.141-5.175,4.078c-1.226,1.393-2.298,2.891-3.276,4.453
		c30.152,15.02,60.22,26.728,90.194,35.183C336.362,658.322,335.621,642.551,334.04,626.795z"/>
	<path style="fill-rule:evenodd;clip-rule:evenodd;fill:#EDC7C6;" d="M347.017,676.85c-0.232-8.601-0.598-17.199-1.226-25.79
		l0.382-1.264c-0.139-2.397-0.202-4.8-0.382-7.201l-0.089,0.326c-1.611-5.318-3.993-9.856-7.126-12.93
		c-1.398-1.369-2.92-2.411-4.537-3.198c1.581,15.756,2.322,31.527,2.613,47.297C340.112,675.07,343.563,675.965,347.017,676.85z"/>
	<path style="fill-rule:evenodd;clip-rule:evenodd;fill:#EDC7C6;" d="M456.184,690.001c0.321-18.015,0.213-36.172,0.312-54.196
		c-2.54,3.123-4.523,7.241-5.872,11.99c-0.948-4.448-2.471-8.412-4.404-11.753c-0.108,17.979-1.255,36.107-1.587,54.072
		C446.487,690.09,454.603,690.01,456.184,690.001z"/>
	<path style="fill-rule:evenodd;clip-rule:evenodd;fill:#EDC7C6;" d="M566.958,629.815c-1.73,0.792-3.356,1.888-4.838,3.351
		l-0.07,0.07c-4.102,4.068-5.856,10.062-5.778,15.894c0.134,9.014,0.619,18.005,1.25,26.994c3.342-0.9,6.688-1.784,10.034-2.767
		C566.691,658.875,566.463,644.369,566.958,629.815z"/>
</g>
</svg>
