<?xml version="1.0" encoding="utf-8"?>
<!-- Generator: Adobe Illustrator 27.5.0, SVG Export Plug-In . SVG Version: 6.00 Build 0)  -->
<svg version="1.1" id="Layer_1" xmlns="http://www.w3.org/2000/svg" xmlns:xlink="http://www.w3.org/1999/xlink" x="0px" y="0px"
	 viewBox="0 0 1000 1000" style="enable-background:new 0 0 1000 1000;" xml:space="preserve">
<g>
	<path style="fill-rule:evenodd;clip-rule:evenodd;fill:#C42429;" d="M302.48,459.943c-10.994,9.29-11.335,38.433-4.152,79.875
		c5.579,32.182,25.48,119.848,96.051,155.607c75.525,38.264,192.359,31.674,246.59-13.683
		c56.609-47.34,66.627-126.647,68.921-151.559c2.802-30.414,2.552-61.329-13.416-70.957c-8.687-5.246-20.76-2.207-33.478,3.325
		c-6.895,2.998-35.258,16.109-57.001,23.028c-27.88,8.875-68.94,16.501-124.087,13.411c-51.935-2.909-87.53-16.453-127.067-33.938
		C335.721,456.593,316.555,448.046,302.48,459.943z"/>
	<linearGradient id="SVGID_1_" gradientUnits="userSpaceOnUse" x1="502.1678" y1="499.0181" x2="502.1677" y2="711.962">
		<stop  offset="0" style="stop-color:#61090B"/>
		<stop  offset="0.21" style="stop-color:#61090B"/>
		<stop  offset="1" style="stop-color:#851919"/>
	</linearGradient>
	<path style="fill-rule:evenodd;clip-rule:evenodd;fill:url(#SVGID_1_);" d="M509.123,714.319
		c-40.331,0-79.123-8.406-109.243-23.665c-61.157-30.987-84.338-106.652-91.539-148.19c-10.239-59.057,1.568-72.866,1.989-73.23
		c2.448-2.058,5.153-2.985,8.774-2.985c8.376,0,19.672,5,30.6,9.833c37.877,16.753,76.257,31.957,131.525,35.056
		c8.508,0.475,17.009,0.722,25.264,0.722c37.86,0,72.58-4.943,103.194-14.685c19.299-6.149,42.811-16.63,54.108-21.669l4.054-1.799
		c7.782-3.387,13.662-5.031,17.973-5.031c1.865,0,3.294,0.316,4.361,0.962c4.63,2.795,13.013,19.325,8.851,64.536
		c-3.334,36.138-17.409,103.794-65.869,144.323C606.345,700.922,559.973,714.319,509.123,714.319z"/>
	<path style="fill-rule:evenodd;clip-rule:evenodd;fill:#F7ECE2;" d="M463.823,600.634c25.218,2.678,32.876-0.566,33.891-15.596
		c0.858-12.713,1.059-41.029,0.867-73.294c-5.742-0.104-11.529-0.275-17.352-0.606c-15.335-0.861-29.337-2.677-42.417-5.177
		c-3.915,20.806-7.659,54.107-7.429,68.837C431.632,591.009,440.693,598.176,463.823,600.634z"/>
	<path style="fill-rule:evenodd;clip-rule:evenodd;fill:#F7ECE2;" d="M382.596,578.08c5.699,5.323,22.554,11.023,32.567,10.519
		c10.011-0.504,11.023-9.376,11.279-18.245c0.238-8.4,1.845-31.479,8.15-65.207c-16.401-3.37-31.32-7.855-45.489-12.972
		c-2.855,8.399-8.119,25.48-11.066,45.182C374.476,561.151,376.894,572.76,382.596,578.08z"/>
	<path style="fill-rule:evenodd;clip-rule:evenodd;fill:#F7ECE2;" d="M341.413,557.995c2.468,8.368,11.12,11.407,18.244,12.359
		c7.22,0.962,11.976-1.903,11.976-12.165c0-9.651,2.193-41.501,12.416-67.867c-11.197-4.215-21.973-8.793-32.688-13.511
		c-2.386,6.486-6.552,19.015-9.064,33.478C339.307,527.533,338.941,549.634,341.413,557.995z"/>
	<path style="fill-rule:evenodd;clip-rule:evenodd;fill:#F7ECE2;" d="M505.923,587.158c0.981,15.032,8.352,18.275,32.65,15.596
		c22.279-2.458,31.006-9.621,31.25-25.837c0.224-14.78-3.408-48.248-7.194-69.037c-17.787,2.624-36.526,3.979-56.136,3.979
		c-0.457,0-0.929-0.021-1.388-0.026C504.896,544.93,505.081,574.179,505.923,587.158z"/>
	<path style="fill-rule:evenodd;clip-rule:evenodd;fill:#F7ECE2;" d="M585.868,594.416c9.273,0.504,24.885-5.198,30.164-10.519
		c5.281-5.324,7.525-16.929,4.23-40.724c-2.83-20.387-7.947-37.965-10.521-46.016l-0.053,0.017
		c-13.43,4.278-27.693,7.569-42.62,9.981c6.818,35.251,8.129,60.438,8.354,69.013C575.656,585.038,576.592,593.911,585.868,594.416z
		"/>
	<path style="fill-rule:evenodd;clip-rule:evenodd;fill:#F7ECE2;" d="M638.085,578.408c7.128-0.968,15.776-4.087,18.248-12.655
		c2.472-8.561,2.104-31.194-0.889-48.854c-2.455-14.495-6.495-27.08-8.901-33.837c-10.269,4.381-22.395,9.266-33.52,12.989
		c10.03,26.098,13.709,53.763,13.884,70.118C627.018,576.684,630.865,579.394,638.085,578.408z"/>
	<path style="fill-rule:evenodd;clip-rule:evenodd;fill:#F7ECE2;" d="M475.1,662.73c-16.979-1.775-24.838-1.146-28.511,5.827
		c-2.553,4.846-3.422,23.358-2.406,38.052c17.647,4.328,36.562,6.871,56.003,7.48c-0.049-25.022-0.684-32.107-1.898-38.433
		C497.024,669.067,492.078,664.507,475.1,662.73z"/>
	<path style="fill-rule:evenodd;clip-rule:evenodd;fill:#F7ECE2;" d="M433.915,658.294c-5.319-2.404-26.229-8.107-32.565-8.744
		c-6.334-0.635-10.756,1.088-12.038,10.141c-1.454,10.256-1.164,19.237-0.765,24.435c3.626,2.341,7.394,4.53,11.332,6.528
		c11.798,5.977,24.958,10.864,38.99,14.64c0.024-6.18,0.135-20.311,0.624-27.992C440.123,667.293,439.238,660.699,433.915,658.294z"
		/>
	<path style="fill-rule:evenodd;clip-rule:evenodd;fill:#F7ECE2;" d="M384.497,655.004c0.634-7.101,0.406-10.54-4.689-13.307
		c-8.542-4.639-16.428-9.19-23.384-13.021c-5.126-2.819-9.184-1.049-10.193,4.145c-0.42,2.153-0.516,5.164-0.488,7.966
		c10.208,15.315,22.953,29.299,38.551,40.305C383.775,668.17,383.931,661.365,384.497,655.004z"/>
	<path style="fill-rule:evenodd;clip-rule:evenodd;fill:#F7ECE2;" d="M561.629,668.557c-3.869-6.973-12.156-7.601-30.057-5.827
		c-17.901,1.777-23.116,6.336-24.449,12.926c-1.283,6.339-1.949,13.435-1.998,38.559c1.336,0.014,2.657,0.104,3.997,0.104
		c19.128,0,37.619-1.893,54.68-5.461C564.947,693.904,564.343,673.438,561.629,668.557z"/>
	<path style="fill-rule:evenodd;clip-rule:evenodd;fill:#F7ECE2;" d="M617.314,660.076c-1.283-9.053-5.702-10.774-12.04-10.143
		c-6.334,0.641-27.244,6.343-32.565,8.748c-5.326,2.405-6.208,9-5.574,19.004c0.471,7.546,0.644,23.068,0.694,30.26
		c18.906-4.297,35.906-10.657,49.882-18.773C618.253,683.153,618.919,671.38,617.314,660.076z"/>
	<path style="fill-rule:evenodd;clip-rule:evenodd;fill:#F7ECE2;" d="M648.702,630.043c-6.21,2.149-14.659,7.014-23.201,11.653
		c-5.1,2.767-5.322,6.207-4.687,13.307c0.588,6.64,0.962,17.533,0.385,32.08c4.313-2.697,8.332-5.547,11.968-8.587
		c10.299-8.616,18.968-18.498,26.389-29.002c-0.058-4.442-0.252-10.344-0.839-13.369
		C657.698,630.928,654.233,628.13,648.702,630.043z"/>
	<path style="fill-rule:evenodd;clip-rule:evenodd;fill:#EDCEB2;" d="M498.581,511.743c-5.742-0.104-11.529-0.275-17.352-0.606
		c-15.335-0.861-29.337-2.677-42.417-5.177c-1.783,9.461-3.522,21.501-4.872,33.211c4.799-14.434,16.387-19.803,35.395-17.88
		c19.002,1.923,26.218,10.287,29.267,27.579C498.671,537.708,498.659,525.073,498.581,511.743z"/>
	<path style="fill-rule:evenodd;clip-rule:evenodd;fill:#EDCEB2;" d="M389.103,492.174c-2.445,7.187-6.643,20.757-9.654,36.873
		c7.219-15.717,19.372-18.376,30.583-15.337c11.213,3.04,19.184,16.135,18.714,29.167l0.024-0.019
		c1.236-10.346,3.059-22.934,5.821-37.711C418.191,501.777,403.272,497.292,389.103,492.174z"/>
	<path style="fill-rule:evenodd;clip-rule:evenodd;fill:#EDCEB2;" d="M351.363,476.812c-2.386,6.486-6.552,19.015-9.064,33.478
		c-0.403,2.327-0.751,4.753-1.057,7.22c7.405-19.764,18.802-19.196,24.31-16.342c5.512,2.85,9.345,13.424,8.376,29.901h0.005
		c1.814-12.586,4.931-27.372,10.117-40.746C372.853,486.108,362.077,481.53,351.363,476.812z"/>
	<path style="fill-rule:evenodd;clip-rule:evenodd;fill:#EDCEB2;" d="M506.493,511.859c-0.457,0-0.929-0.021-1.388-0.026
		c-0.086,13.532-0.102,26.399-0.041,37.791c6.091-18.808,18.063-23.433,31.559-24.953c13.493-1.523,27.063,1.699,31.083,19.755
		c-1.351-12.746-3.194-26.214-5.077-36.546C544.841,510.504,526.103,511.859,506.493,511.859z"/>
	<path style="fill-rule:evenodd;clip-rule:evenodd;fill:#EDCEB2;" d="M609.687,497.174c-13.43,4.278-27.693,7.569-42.62,9.981
		c2.526,13.069,4.297,24.741,5.531,34.705h0.002c2.225-17.124,13.06-25.21,25.036-26.818c11.235-1.51,17.657,5.181,20.863,17.354
		c-2.866-15.652-6.659-28.658-8.76-35.239L609.687,497.174z"/>
	<path style="fill-rule:evenodd;clip-rule:evenodd;fill:#EDCEB2;" d="M635.495,501.832c7.389-3.088,16.057-0.664,19.525,12.776
		c-2.477-13.513-6.202-25.15-8.478-31.545c-10.269,4.381-22.395,9.266-33.52,12.989c4.102,10.662,7.089,21.557,9.266,31.866
		l0.026-0.038C622.384,513.223,628.085,504.933,635.495,501.832z"/>
	<path style="fill-rule:evenodd;clip-rule:evenodd;fill:#EDCEB2;" d="M473.707,700.745c-14.25-1.901-28.501-8.173-29.301-21.501
		c-0.755,7.864-0.848,18.322-0.224,27.365c17.647,4.328,36.562,6.871,56.003,7.48c-0.026-15.47-0.283-24.073-0.76-29.891
		C498.527,699.568,487.961,702.645,473.707,700.745z"/>
	<path style="fill-rule:evenodd;clip-rule:evenodd;fill:#EDCEB2;" d="M414.782,686.681c-15.776-6.084-23.379-14.449-25.47-26.991
		c-1.454,10.256-1.164,19.237-0.765,24.435c3.626,2.341,7.394,4.53,11.332,6.528c11.798,5.977,24.958,10.864,38.99,14.64
		c0.024-6.18,0.135-20.311,0.624-27.992c0.041-0.672,0.058-1.29,0.085-1.93C437.762,688.047,430.52,692.749,414.782,686.681z"/>
	<path style="fill-rule:evenodd;clip-rule:evenodd;fill:#EDCEB2;" d="M365.244,656.077c-11.71-8.174-18.127-19.003-18.482-25.071
		c-0.221,0.551-0.403,1.15-0.53,1.814c-0.42,2.153-0.516,5.164-0.488,7.966c10.208,15.315,22.953,29.299,38.551,40.305
		c-0.518-12.921-0.363-19.726,0.203-26.087C382.532,662.102,376.956,664.25,365.244,656.077z"/>
	<path style="fill-rule:evenodd;clip-rule:evenodd;fill:#EDCEB2;" d="M534.741,702.075c-18.036,0.188-27.201-5.512-28.813-17.872
		c-0.502,5.831-0.769,14.465-0.801,30.011c1.336,0.014,2.657,0.104,3.997,0.104c19.128,0,37.619-1.893,54.68-5.461
		c0.675-8.822,0.737-19.541,0.119-27.867C563.654,693.319,552.764,701.887,534.741,702.075z"/>
	<path style="fill-rule:evenodd;clip-rule:evenodd;fill:#EDCEB2;" d="M596.117,687.083c-14.446,4.397-26.804,2.256-28.867-7.246
		h-0.004c0.384,8.034,0.534,21.524,0.582,28.108c18.906-4.297,35.906-10.657,49.882-18.773c0.478-5.312,1.044-15.118,0.072-25.119
		C617.207,674.292,610.554,682.688,596.117,687.083z"/>
	<path style="fill-rule:evenodd;clip-rule:evenodd;fill:#EDCEB2;" d="M657.028,632.063L657.028,632.063
		c2.747,8.868-4.652,16.982-13.015,24.776c-8.363,7.791-21.095,13.495-22.676,7.215c0.212,6.125,0.224,13.848-0.138,23.03
		c4.313-2.697,8.332-5.547,11.968-8.587c10.299-8.616,18.968-18.498,26.389-29.002c-0.058-4.442-0.252-10.344-0.839-13.369
		C658.399,634.504,657.812,633.149,657.028,632.063z"/>
</g>
</svg>
